<?xml version="1.0" encoding="UTF-8"?>
<svg id="Calque_1" xmlns="http://www.w3.org/2000/svg" version="1.1" viewBox="0 0 297.64 90.71">
  <!-- Generator: Adobe Illustrator 29.3.1, SVG Export Plug-In . SVG Version: 2.1.0 Build 151)  -->
  <defs>
    <style>
      .st0 {
        fill: #221f20;
      }
    </style>
  </defs>
  <path class="st0" d="M47.88,75.49L0,55.6v-.67l47.88-19.89v1.69L2.78,55.26l45.1,18.55v1.69Z"/>
  <path class="st0" d="M105.53,75.49h-1.26c-.39-.45-.84-.85-1.35-1.22-.51-.36-1.29-.55-2.36-.55-.84,0-1.76.16-2.74.47-.98.31-2.11.66-3.37,1.05-1.26.4-2.69.74-4.26,1.05-1.57.31-3.32.47-5.23.47-3.54,0-6.98-.65-10.33-1.94-3.34-1.29-6.51-3.4-9.48-6.32-2.76-2.75-5.06-6.01-6.91-9.78-1.85-3.77-2.78-8.12-2.78-13.07,0-4.22.76-8.23,2.28-12.05s3.62-7.19,6.32-10.12c2.7-2.92,5.87-5.24,9.53-6.95s7.64-2.57,11.97-2.57c1.74,0,3.29.17,4.64.51s2.56.72,3.62,1.14c1.07.42,2.05.8,2.95,1.14.9.34,1.77.51,2.61.51,1.12,0,1.92-.18,2.4-.55.48-.36.91-.77,1.31-1.22h1.26v16.86h-.93c-.51-2.14-1.15-4.24-1.94-6.32-.79-2.08-1.88-3.92-3.29-5.52-1.41-1.6-3.19-2.9-5.35-3.88-2.16-.98-4.85-1.47-8.05-1.47-2.98,0-5.53.46-7.67,1.39-2.14.93-3.94,2.16-5.4,3.71-1.46,1.55-2.63,3.34-3.5,5.39-.87,2.05-1.53,4.22-1.98,6.49-.45,2.28-.75,4.58-.89,6.91-.14,2.33-.21,4.54-.21,6.62,0,5.9.48,10.79,1.43,14.66.95,3.88,2.29,6.94,4,9.19,1.71,2.25,3.78,3.82,6.2,4.72,2.41.9,5.08,1.35,8.01,1.35,3.77,0,6.8-.54,9.1-1.6s4.16-2.46,5.56-4.17c1.4-1.71,2.47-3.65,3.2-5.81.73-2.16,1.38-4.31,1.94-6.45h.93v17.95Z"/>
  <path class="st0" d="M112.36,74.31h9.36V16.65h-9.36v-1.18h27.14v1.18h-9.36v57.66h15c4.94,0,8.82-1.54,11.63-4.64,2.81-3.09,4.86-7.3,6.15-12.64h.93v18.46h-51.5v-1.18Z"/>
  <path class="st0" d="M173.9,57.37h.93c.62,3.03,1.42,5.59,2.4,7.67.98,2.08,2.07,3.79,3.25,5.14s2.41,2.39,3.71,3.12,2.6,1.26,3.92,1.6,2.58.54,3.79.59c1.21.05,2.34.09,3.41.09,2.98,0,5.42-.45,7.33-1.35,1.91-.9,3.43-2.03,4.55-3.41,1.12-1.38,1.91-2.87,2.36-4.47.45-1.6.67-3.08.67-4.43,0-1.97-.37-3.65-1.1-5.06-.73-1.41-1.66-2.6-2.78-3.58-1.13-.98-2.35-1.78-3.67-2.4s-2.57-1.1-3.75-1.43l-9.69-2.95c-4.55-1.41-7.99-3.26-10.33-5.57-2.33-2.3-3.5-5.39-3.5-9.27,0-2.53.45-4.88,1.35-7.04.9-2.16,2.16-4.03,3.79-5.61,1.63-1.57,3.58-2.81,5.86-3.71,2.28-.9,4.76-1.35,7.46-1.35,1.97,0,3.61.17,4.93.51s2.46.72,3.41,1.14c.95.42,1.81.8,2.57,1.14.76.34,1.53.51,2.32.51.73,0,1.22-.1,1.47-.3.25-.2.6-.69,1.05-1.47h1.18v15.26h-1.01c-.34-2.02-.91-3.97-1.73-5.86s-1.87-3.54-3.16-4.97c-1.29-1.43-2.85-2.58-4.68-3.46-1.83-.87-3.95-1.31-6.37-1.31-1.35,0-2.84.18-4.47.55s-3.15,1-4.55,1.9-2.57,2.08-3.5,3.54c-.93,1.46-1.39,3.32-1.39,5.56,0,1.8.36,3.33,1.09,4.59.73,1.27,1.67,2.33,2.83,3.2,1.15.87,2.44,1.6,3.88,2.19,1.43.59,2.88,1.11,4.34,1.56l10.2,3.2c1.07.34,2.42.79,4.05,1.35,1.63.56,3.21,1.41,4.76,2.53,1.54,1.13,2.87,2.61,3.96,4.46,1.1,1.85,1.65,4.21,1.65,7.08,0,2.64-.49,5.15-1.48,7.54-.98,2.39-2.4,4.5-4.26,6.32s-4.1,3.29-6.74,4.38c-2.64,1.1-5.62,1.65-8.93,1.65-1.18,0-2.22-.02-3.12-.04-.9-.03-1.74-.1-2.53-.21-.79-.11-1.58-.24-2.36-.38-.79-.14-1.66-.35-2.61-.63-1.13-.34-2.33-.73-3.63-1.18s-2.41-.67-3.37-.67c-.84,0-1.42.17-1.73.51s-.58.79-.8,1.35h-1.26v-18.12Z"/>
  <path class="st0" d="M246.81,14.97l1.69.51-22.76,60.52-1.69-.51,22.76-60.52Z"/>
  <path class="st0" d="M249.76,35.03l47.88,19.89v.67l-47.88,19.89v-1.69l45.18-18.55-45.18-18.55v-1.69Z"/>
</svg>